<?xml version="1.0" encoding="iso-8859-1"?>
<!-- Uploaded to: SVG Repo, www.svgrepo.com, Generator: SVG Repo Mixer Tools -->
<!DOCTYPE svg PUBLIC "-//W3C//DTD SVG 1.1//EN" "http://www.w3.org/Graphics/SVG/1.1/DTD/svg11.dtd">
<svg fill="currentColor" version="1.1" id="Capa_1" xmlns="http://www.w3.org/2000/svg" xmlns:xlink="http://www.w3.org/1999/xlink" 
	 width="800px" height="800px" viewBox="0 0 46.023 46.023"
	 xml:space="preserve">
<g>
	<g>
		<path d="M16.836,25.664c0.37-3.768,2.186-7.166,5.113-9.567c2.527-2.074,5.72-3.217,8.986-3.217c1.141,0,2.263,0.137,3.346,0.397
			c-0.373-2.756-2.735-4.859-5.598-4.859h-2.888V7.632c0-3.477-2.863-6.266-6.34-6.266h-4.539c-3.477,0-6.287,2.789-6.287,6.266
			v0.786H5.692C2.569,8.418,0,10.919,0,14.042v16.938c0,3.123,2.569,5.646,5.692,5.646H20.49c-0.174-0.188-0.342-0.382-0.506-0.581
			C17.583,33.118,16.464,29.431,16.836,25.664z M12.62,7.632c0-1.252,1.047-2.275,2.298-2.275h4.539
			c1.252,0,2.257,1.023,2.257,2.275v0.786H12.62V7.632z"/>
		<path d="M30.936,23.976c-0.727,0-1.381,0.235-1.947,0.699c-0.635,0.521-1.028,1.26-1.108,2.077
			c-0.08,0.818,0.162,1.618,0.685,2.253c0.586,0.717,1.455,1.125,2.383,1.125c0.726,0,1.382-0.234,1.947-0.701
			c0.635-0.52,1.027-1.256,1.108-2.074c0.08-0.817-0.162-1.617-0.685-2.254C32.73,24.386,31.861,23.976,30.936,23.976z"/>
		<path d="M45.223,38.885l-4.841-5.896c0.911-1.446,1.479-3.094,1.652-4.844c0.29-2.963-0.589-5.862-2.479-8.165
			c-2.125-2.59-5.267-4.075-8.619-4.075c-2.569,0-5.078,0.899-7.066,2.531c-2.303,1.889-3.73,4.561-4.021,7.523
			c-0.293,2.965,0.588,5.864,2.477,8.166c2.126,2.589,5.268,4.074,8.62,4.074c1.365,0,2.714-0.253,3.976-0.736l4.845,5.902
			c0.696,0.85,1.711,1.291,2.73,1.291c0.788,0,1.581-0.264,2.238-0.803C46.24,42.618,46.459,40.394,45.223,38.885z M26.223,30.925
			c-1.033-1.259-1.516-2.847-1.354-4.47c0.159-1.622,0.94-3.085,2.202-4.119c1.104-0.906,2.439-1.386,3.865-1.386
			c1.838,0,3.559,0.813,4.723,2.23c1.033,1.26,1.516,2.848,1.355,4.469c-0.16,1.623-0.939,3.086-2.201,4.119
			c-1.104,0.907-2.44,1.389-3.867,1.389C29.107,33.157,27.387,32.343,26.223,30.925z"/>
	</g>
</g>
</svg>